<?xml version="1.0" encoding="UTF-8" standalone="no"?>
<!DOCTYPE svg PUBLIC "-//W3C//DTD SVG 1.1//EN"
 "http://www.w3.org/Graphics/SVG/1.1/DTD/svg11.dtd">
<!-- Generated by graphviz version 14.0.4 (20251115.1723)
 -->
<!-- Title: Grapevine Pages: 1 -->
<svg width="1804pt" height="801pt"
 viewBox="0.00 0.00 1804.00 801.00" xmlns="http://www.w3.org/2000/svg" xmlns:xlink="http://www.w3.org/1999/xlink">
<g id="graph0" class="graph" transform="scale(1 1) rotate(0) translate(4 797)">
<title>Grapevine</title>
<polygon fill="white" stroke="none" points="-4,4 -4,-797 1800,-797 1800,4 -4,4"/>
<g id="clust1" class="cluster">
<title>cluster_classes</title>
<polygon fill="#f1f1f1" stroke="#f1f1f1" points="8,-457 8,-752.5 608,-752.5 608,-457 8,-457"/>
<text xml:space="preserve" text-anchor="middle" x="308" y="-735.2" font-family="Times,serif" font-size="14.00">Classes</text>
</g>
<g id="clust2" class="cluster">
<title>cluster_main</title>
<polygon fill="#f1f1f1" stroke="#f1f1f1" points="616,-8 616,-785 1788,-785 1788,-8 616,-8"/>
<text xml:space="preserve" text-anchor="middle" x="1202" y="-767.7" font-family="Times,serif" font-size="14.00">main.ts</text>
</g>
<g id="clust3" class="cluster">
<title>cluster_crawl</title>
<polygon fill="#e0e0e0" stroke="#e0e0e0" points="624,-250.5 624,-752.5 872,-752.5 872,-250.5 624,-250.5"/>
<text xml:space="preserve" text-anchor="middle" x="748" y="-735.2" font-family="Times,serif" font-size="14.00">Crawl Loop</text>
</g>
<g id="clust4" class="cluster">
<title>cluster_gather</title>
<polygon fill="#e0e0e0" stroke="#e0e0e0" points="1166,-16 1166,-438 1768,-438 1768,-16 1166,-16"/>
<text xml:space="preserve" text-anchor="middle" x="1467" y="-420.7" font-family="Times,serif" font-size="14.00">Gatherer</text>
</g>
<g id="clust5" class="cluster">
<title>cluster_embed</title>
<polygon fill="#e0e0e0" stroke="#e0e0e0" points="880,-16 880,-327 1158,-327 1158,-16 880,-16"/>
<text xml:space="preserve" text-anchor="middle" x="1019" y="-309.7" font-family="Times,serif" font-size="14.00">Embedder</text>
</g>
<!-- maints -->
<g id="node1" class="node">
<title>maints</title>
<polygon fill="lightblue" stroke="black" points="214,-720 159.47,-702 214,-684 268.53,-702 214,-720"/>
<text xml:space="preserve" text-anchor="middle" x="214" y="-696.95" font-family="Times,serif" font-size="14.00">main.ts</text>
</g>
<!-- ringqueue -->
<g id="node2" class="node">
<title>ringqueue</title>
<polygon fill="lightblue" stroke="black" points="291.75,-574 214.25,-574 214.25,-538 291.75,-538 291.75,-574"/>
<text xml:space="preserve" text-anchor="middle" x="253" y="-550.95" font-family="Times,serif" font-size="14.00">RingQueue</text>
</g>
<!-- maints&#45;&gt;ringqueue -->
<g id="edge1" class="edge">
<title>maints&#45;&gt;ringqueue</title>
<path fill="none" stroke="black" d="M218.32,-685.04C224.84,-660.99 237.26,-615.12 245.33,-585.31"/>
<polygon fill="black" stroke="black" points="248.66,-586.4 247.9,-575.84 241.91,-584.57 248.66,-586.4"/>
</g>
<!-- queue -->
<g id="node3" class="node">
<title>queue</title>
<polygon fill="greenyellow" stroke="black" points="280,-501 226,-501 226,-465 280,-465 280,-501"/>
<text xml:space="preserve" text-anchor="middle" x="253" y="-477.95" font-family="Times,serif" font-size="14.00">Queue</text>
</g>
<!-- maints&#45;&gt;queue -->
<g id="edge2" class="edge">
<title>maints&#45;&gt;queue</title>
<path fill="none" stroke="black" d="M209.1,-685.53C200.55,-655.81 185.56,-589.13 205,-538 209,-527.47 216.1,-517.68 223.64,-509.41"/>
<polygon fill="black" stroke="black" points="225.96,-512.04 230.47,-502.46 220.97,-507.14 225.96,-512.04"/>
</g>
<!-- gatherer -->
<g id="node4" class="node">
<title>gatherer</title>
<polygon fill="lightblue" stroke="black" points="175.62,-647 112.38,-647 112.38,-611 175.62,-611 175.62,-647"/>
<text xml:space="preserve" text-anchor="middle" x="144" y="-623.95" font-family="Times,serif" font-size="14.00">Gatherer</text>
</g>
<!-- maints&#45;&gt;gatherer -->
<g id="edge4" class="edge">
<title>maints&#45;&gt;gatherer</title>
<path fill="none" stroke="black" d="M201.16,-687.98C192.23,-678.92 180.02,-666.54 169.19,-655.55"/>
<polygon fill="black" stroke="black" points="171.82,-653.23 162.3,-648.57 166.83,-658.14 171.82,-653.23"/>
</g>
<!-- embedder -->
<g id="node5" class="node">
<title>embedder</title>
<polygon fill="lightblue" stroke="black" points="357.12,-647 284.88,-647 284.88,-611 357.12,-611 357.12,-647"/>
<text xml:space="preserve" text-anchor="middle" x="321" y="-623.95" font-family="Times,serif" font-size="14.00">Embedder</text>
</g>
<!-- maints&#45;&gt;embedder -->
<g id="edge7" class="edge">
<title>maints&#45;&gt;embedder</title>
<path fill="none" stroke="black" d="M231.19,-689.59C245.71,-679.96 266.99,-665.84 285.19,-653.76"/>
<polygon fill="black" stroke="black" points="286.99,-656.77 293.39,-648.32 283.12,-650.93 286.99,-656.77"/>
</g>
<!-- ringqueue&#45;&gt;queue -->
<g id="edge3" class="edge">
<title>ringqueue&#45;&gt;queue</title>
<path fill="none" stroke="black" d="M253,-537.81C253,-530.23 253,-521.1 253,-512.54"/>
<polygon fill="black" stroke="black" points="256.5,-512.54 253,-502.54 249.5,-512.54 256.5,-512.54"/>
</g>
<!-- web -->
<g id="node9" class="node">
<title>web</title>
<path fill="violet" stroke="black" d="M176,-570.73C176,-572.53 163.9,-574 149,-574 134.1,-574 122,-572.53 122,-570.73 122,-570.73 122,-541.27 122,-541.27 122,-539.47 134.1,-538 149,-538 163.9,-538 176,-539.47 176,-541.27 176,-541.27 176,-570.73 176,-570.73"/>
<path fill="none" stroke="black" d="M176,-570.73C176,-568.92 163.9,-567.45 149,-567.45 134.1,-567.45 122,-568.92 122,-570.73"/>
<text xml:space="preserve" text-anchor="middle" x="149" y="-550.95" font-family="Times,serif" font-size="14.00">Web</text>
</g>
<!-- gatherer&#45;&gt;web -->
<g id="edge5" class="edge">
<title>gatherer&#45;&gt;web</title>
<path fill="none" stroke="black" d="M145.21,-610.81C145.75,-603.14 146.4,-593.89 147.01,-585.24"/>
<polygon fill="black" stroke="black" points="150.48,-585.76 147.69,-575.54 143.5,-585.27 150.48,-585.76"/>
</g>
<!-- gemini -->
<g id="node10" class="node">
<title>gemini</title>
<path fill="violet" stroke="black" d="M103.62,-570.73C103.62,-572.53 84.07,-574 60,-574 35.93,-574 16.38,-572.53 16.38,-570.73 16.38,-570.73 16.38,-541.27 16.38,-541.27 16.38,-539.47 35.93,-538 60,-538 84.07,-538 103.62,-539.47 103.62,-541.27 103.62,-541.27 103.62,-570.73 103.62,-570.73"/>
<path fill="none" stroke="black" d="M103.62,-570.73C103.62,-568.92 84.07,-567.45 60,-567.45 35.93,-567.45 16.38,-568.92 16.38,-570.73"/>
<text xml:space="preserve" text-anchor="middle" x="60" y="-550.95" font-family="Times,serif" font-size="14.00">Geminispace</text>
</g>
<!-- gatherer&#45;&gt;gemini -->
<g id="edge6" class="edge">
<title>gatherer&#45;&gt;gemini</title>
<path fill="none" stroke="black" d="M123.67,-610.81C113.32,-602.07 100.56,-591.28 89.19,-581.67"/>
<polygon fill="black" stroke="black" points="91.49,-579.03 81.59,-575.25 86.97,-584.38 91.49,-579.03"/>
</g>
<!-- embedder&#45;&gt;ringqueue -->
<g id="edge8" class="edge">
<title>embedder&#45;&gt;ringqueue</title>
<path fill="none" stroke="black" d="M304.54,-610.81C296.35,-602.27 286.3,-591.77 277.25,-582.32"/>
<polygon fill="black" stroke="black" points="279.8,-579.92 270.36,-575.12 274.75,-584.76 279.8,-579.92"/>
</g>
<!-- embedder&#45;&gt;queue -->
<g id="edge9" class="edge">
<title>embedder&#45;&gt;queue</title>
<path fill="none" stroke="black" d="M319.74,-610.54C317.8,-591.73 312.95,-561.37 301,-538 295.74,-527.72 288.06,-517.85 280.38,-509.43"/>
<polygon fill="black" stroke="black" points="282.98,-507.09 273.53,-502.31 277.94,-511.94 282.98,-507.09"/>
</g>
<!-- vectorstorage -->
<g id="node6" class="node">
<title>vectorstorage</title>
<polygon fill="greenyellow" stroke="black" points="444.25,-501 351.75,-501 351.75,-465 444.25,-465 444.25,-501"/>
<text xml:space="preserve" text-anchor="middle" x="398" y="-477.95" font-family="Times,serif" font-size="14.00">VectorStorage</text>
</g>
<!-- embedder&#45;&gt;vectorstorage -->
<g id="edge11" class="edge">
<title>embedder&#45;&gt;vectorstorage</title>
<path fill="none" stroke="black" d="M321.85,-610.68C323.43,-591.72 327.98,-560.98 341,-538 347.11,-527.22 356.07,-517.28 365.09,-508.95"/>
<polygon fill="black" stroke="black" points="367.28,-511.68 372.52,-502.47 362.68,-506.41 367.28,-511.68"/>
</g>
<!-- filevectorstorage -->
<g id="node7" class="node">
<title>filevectorstorage</title>
<polygon fill="lightblue" stroke="black" points="599.75,-574 486.25,-574 486.25,-538 599.75,-538 599.75,-574"/>
<text xml:space="preserve" text-anchor="middle" x="543" y="-550.95" font-family="Times,serif" font-size="14.00">FileVectorStorage</text>
</g>
<!-- embedder&#45;&gt;filevectorstorage -->
<g id="edge12" class="edge">
<title>embedder&#45;&gt;filevectorstorage</title>
<path fill="none" stroke="black" d="M357.16,-616.43C389.73,-606.02 438.39,-590.46 477.75,-577.87"/>
<polygon fill="black" stroke="black" points="478.68,-581.25 487.14,-574.87 476.55,-574.58 478.68,-581.25"/>
</g>
<!-- embedmodel -->
<g id="node11" class="node">
<title>embedmodel</title>
<path fill="violet" stroke="black" d="M468.38,-570.73C468.38,-572.53 441.76,-574 409,-574 376.24,-574 349.62,-572.53 349.62,-570.73 349.62,-570.73 349.62,-541.27 349.62,-541.27 349.62,-539.47 376.24,-538 409,-538 441.76,-538 468.38,-539.47 468.38,-541.27 468.38,-541.27 468.38,-570.73 468.38,-570.73"/>
<path fill="none" stroke="black" d="M468.38,-570.73C468.38,-568.92 441.76,-567.45 409,-567.45 376.24,-567.45 349.62,-568.92 349.62,-570.73"/>
<text xml:space="preserve" text-anchor="middle" x="409" y="-550.95" font-family="Times,serif" font-size="14.00">Embedding Model</text>
</g>
<!-- embedder&#45;&gt;embedmodel -->
<g id="edge10" class="edge">
<title>embedder&#45;&gt;embedmodel</title>
<path fill="none" stroke="black" d="M342.3,-610.81C353.25,-601.98 366.77,-591.07 378.77,-581.39"/>
<polygon fill="black" stroke="black" points="380.83,-584.23 386.41,-575.23 376.43,-578.78 380.83,-584.23"/>
</g>
<!-- filevectorstorage&#45;&gt;vectorstorage -->
<g id="edge14" class="edge">
<title>filevectorstorage&#45;&gt;vectorstorage</title>
<path fill="none" stroke="black" d="M507.53,-537.63C488.31,-528.22 464.34,-516.48 443.73,-506.39"/>
<polygon fill="black" stroke="black" points="445.49,-503.36 434.97,-502.1 442.41,-509.64 445.49,-503.36"/>
</g>
<!-- disk -->
<g id="node8" class="node">
<title>disk</title>
<path fill="burlywood" stroke="black" d="M570,-497.73C570,-499.53 557.9,-501 543,-501 528.1,-501 516,-499.53 516,-497.73 516,-497.73 516,-468.27 516,-468.27 516,-466.47 528.1,-465 543,-465 557.9,-465 570,-466.47 570,-468.27 570,-468.27 570,-497.73 570,-497.73"/>
<path fill="none" stroke="black" d="M570,-497.73C570,-495.92 557.9,-494.45 543,-494.45 528.1,-494.45 516,-495.92 516,-497.73"/>
<text xml:space="preserve" text-anchor="middle" x="543" y="-477.95" font-family="Times,serif" font-size="14.00">Disk</text>
</g>
<!-- filevectorstorage&#45;&gt;disk -->
<g id="edge13" class="edge">
<title>filevectorstorage&#45;&gt;disk</title>
<path fill="none" stroke="black" d="M543,-537.81C543,-530.23 543,-521.1 543,-512.54"/>
<polygon fill="black" stroke="black" points="546.5,-512.54 543,-502.54 539.5,-512.54 546.5,-512.54"/>
</g>
<!-- entrypoint -->
<g id="node12" class="node">
<title>entrypoint</title>
<ellipse fill="lightblue" stroke="black" cx="748" cy="-702" rx="38.56" ry="18"/>
<text xml:space="preserve" text-anchor="middle" x="748" y="-696.95" font-family="Times,serif" font-size="14.00">main.ts</text>
</g>
<!-- seed -->
<g id="node13" class="node">
<title>seed</title>
<ellipse fill="lightblue" stroke="black" cx="748" cy="-629" rx="84.62" ry="18"/>
<text xml:space="preserve" text-anchor="middle" x="748" y="-623.95" font-family="Times,serif" font-size="14.00">Enqueue Seed URL</text>
</g>
<!-- entrypoint&#45;&gt;seed -->
<g id="edge15" class="edge">
<title>entrypoint&#45;&gt;seed</title>
<path fill="none" stroke="black" d="M748,-683.81C748,-676.23 748,-667.1 748,-658.54"/>
<polygon fill="black" stroke="black" points="751.5,-658.54 748,-648.54 744.5,-658.54 751.5,-658.54"/>
</g>
<!-- dequeue -->
<g id="node14" class="node">
<title>dequeue</title>
<ellipse fill="lightblue" stroke="black" cx="748" cy="-556" rx="47.77" ry="18"/>
<text xml:space="preserve" text-anchor="middle" x="748" y="-550.95" font-family="Times,serif" font-size="14.00">dequeue()</text>
</g>
<!-- seed&#45;&gt;dequeue -->
<g id="edge16" class="edge">
<title>seed&#45;&gt;dequeue</title>
<path fill="none" stroke="black" d="M748,-610.81C748,-603.23 748,-594.1 748,-585.54"/>
<polygon fill="black" stroke="black" points="751.5,-585.54 748,-575.54 744.5,-585.54 751.5,-585.54"/>
</g>
<!-- gather -->
<g id="node15" class="node">
<title>gather</title>
<ellipse fill="lightblue" stroke="black" cx="790" cy="-483" rx="74.38" ry="18"/>
<text xml:space="preserve" text-anchor="middle" x="790" y="-477.95" font-family="Times,serif" font-size="14.00">Gatherer.gather()</text>
</g>
<!-- dequeue&#45;&gt;gather -->
<g id="edge17" class="edge">
<title>dequeue&#45;&gt;gather</title>
<path fill="none" stroke="black" d="M757.95,-538.17C762.75,-530.07 768.61,-520.15 774.01,-511.03"/>
<polygon fill="black" stroke="black" points="776.98,-512.89 779.06,-502.5 770.95,-509.33 776.98,-512.89"/>
</g>
<!-- embed -->
<g id="node16" class="node">
<title>embed</title>
<ellipse fill="lightblue" stroke="black" cx="748" cy="-387.5" rx="116.35" ry="18"/>
<text xml:space="preserve" text-anchor="middle" x="748" y="-382.45" font-family="Times,serif" font-size="14.00">Embedder.embedAndSave()</text>
</g>
<!-- gather&#45;&gt;embed -->
<g id="edge18" class="edge">
<title>gather&#45;&gt;embed</title>
<path fill="none" stroke="black" d="M782.3,-464.85C776.18,-451.23 767.5,-431.91 760.41,-416.12"/>
<polygon fill="black" stroke="black" points="763.71,-414.93 756.42,-407.24 757.32,-417.79 763.71,-414.93"/>
</g>
<!-- gatherreceive -->
<g id="node18" class="node">
<title>gatherreceive</title>
<ellipse fill="lightblue" stroke="black" cx="1258" cy="-387.5" rx="61.59" ry="18"/>
<text xml:space="preserve" text-anchor="middle" x="1258" y="-382.45" font-family="Times,serif" font-size="14.00">Receive URL</text>
</g>
<!-- gather&#45;&gt;gatherreceive -->
<g id="edge33" class="edge">
<title>gather&#45;&gt;gatherreceive</title>
<path fill="none" stroke="black" d="M845.99,-470.81C934.4,-453.15 1105.68,-418.93 1197.07,-400.67"/>
<polygon fill="black" stroke="black" points="1197.74,-404.11 1206.86,-398.72 1196.37,-397.24 1197.74,-404.11"/>
</g>
<!-- embed&#45;&gt;dequeue -->
<g id="edge20" class="edge">
<title>embed&#45;&gt;dequeue</title>
<path fill="none" stroke="black" d="M734.17,-405.59C724.45,-418.76 712.28,-437.9 707,-457 701.79,-475.85 700.76,-482.47 707,-501 710.53,-511.49 717,-521.55 723.76,-530.09"/>
<polygon fill="black" stroke="black" points="720.97,-532.21 730.12,-537.56 726.3,-527.68 720.97,-532.21"/>
</g>
<!-- exit -->
<g id="node17" class="node">
<title>exit</title>
<ellipse fill="lightblue" stroke="black" cx="748" cy="-276.5" rx="47.77" ry="18"/>
<text xml:space="preserve" text-anchor="middle" x="748" y="-271.45" font-family="Times,serif" font-size="14.00">dequeue()</text>
</g>
<!-- embed&#45;&gt;exit -->
<g id="edge19" class="edge">
<title>embed&#45;&gt;exit</title>
<path fill="none" stroke="black" d="M748,-369.47C748,-352.53 748,-326.23 748,-306.09"/>
<polygon fill="black" stroke="black" points="751.5,-306.28 748,-296.28 744.5,-306.28 751.5,-306.28"/>
<text xml:space="preserve" text-anchor="middle" x="775.38" y="-338.2" font-family="Times,serif" font-size="14.00">isEmpty()</text>
</g>
<!-- embedwait -->
<g id="node25" class="node">
<title>embedwait</title>
<polygon fill="lightblue" stroke="black" points="1019,-294.5 888.47,-276.5 1019,-258.5 1149.53,-276.5 1019,-294.5"/>
<text xml:space="preserve" text-anchor="middle" x="1019" y="-271.45" font-family="Times,serif" font-size="14.00">Receive text &amp; chunk</text>
</g>
<!-- embed&#45;&gt;embedwait -->
<g id="edge35" class="edge">
<title>embed&#45;&gt;embedwait</title>
<path fill="none" stroke="black" d="M788.57,-370.18C839.02,-349.89 924.77,-315.4 976.22,-294.71"/>
<polygon fill="black" stroke="black" points="977.28,-298.05 985.25,-291.07 974.67,-291.56 977.28,-298.05"/>
</g>
<!-- filter -->
<g id="node21" class="node">
<title>filter</title>
<ellipse fill="lightblue" stroke="black" cx="1322" cy="-276.5" rx="99.46" ry="18"/>
<text xml:space="preserve" text-anchor="middle" x="1322" y="-271.45" font-family="Times,serif" font-size="14.00">Filter disallowed URLS</text>
</g>
<!-- gatherreceive&#45;&gt;filter -->
<g id="edge21" class="edge">
<title>gatherreceive&#45;&gt;filter</title>
<path fill="none" stroke="black" d="M1268,-369.47C1278.18,-352.13 1294.11,-324.99 1306.04,-304.68"/>
<polygon fill="black" stroke="black" points="1309.05,-306.47 1311.09,-296.08 1303.01,-302.93 1309.05,-306.47"/>
</g>
<!-- fetchgemini -->
<g id="node19" class="node">
<title>fetchgemini</title>
<polygon fill="lightblue" stroke="black" points="1322,-206 1226.22,-188 1322,-170 1417.78,-188 1322,-206"/>
<text xml:space="preserve" text-anchor="middle" x="1322" y="-182.95" font-family="Times,serif" font-size="14.00">Fetch gemini://</text>
</g>
<!-- extractgemtext -->
<g id="node23" class="node">
<title>extractgemtext</title>
<ellipse fill="lightblue" stroke="black" cx="1322" cy="-115" rx="148.08" ry="18"/>
<text xml:space="preserve" text-anchor="middle" x="1322" y="-109.95" font-family="Times,serif" font-size="14.00">Remove formatting, extract =&gt; lines</text>
</g>
<!-- fetchgemini&#45;&gt;extractgemtext -->
<g id="edge24" class="edge">
<title>fetchgemini&#45;&gt;extractgemtext</title>
<path fill="none" stroke="black" d="M1322,-169.81C1322,-162.23 1322,-153.1 1322,-144.54"/>
<polygon fill="black" stroke="black" points="1325.5,-144.54 1322,-134.54 1318.5,-144.54 1325.5,-144.54"/>
</g>
<!-- fetchhttp -->
<g id="node20" class="node">
<title>fetchhttp</title>
<polygon fill="lightblue" stroke="black" points="1553,-206 1460.11,-188 1553,-170 1645.89,-188 1553,-206"/>
<text xml:space="preserve" text-anchor="middle" x="1553" y="-182.95" font-family="Times,serif" font-size="14.00">Fetch http(s)://</text>
</g>
<!-- extracthtml -->
<g id="node22" class="node">
<title>extracthtml</title>
<ellipse fill="lightblue" stroke="black" cx="1624" cy="-115" rx="136.31" ry="18"/>
<text xml:space="preserve" text-anchor="middle" x="1624" y="-109.95" font-family="Times,serif" font-size="14.00">reader.js &amp; querySelectorAll(&quot;a&quot;)</text>
</g>
<!-- fetchhttp&#45;&gt;extracthtml -->
<g id="edge25" class="edge">
<title>fetchhttp&#45;&gt;extracthtml</title>
<path fill="none" stroke="black" d="M1567.37,-172.63C1576.38,-163.62 1588.26,-151.74 1598.81,-141.19"/>
<polygon fill="black" stroke="black" points="1601.23,-143.72 1605.83,-134.17 1596.28,-138.77 1601.23,-143.72"/>
</g>
<!-- filter&#45;&gt;fetchgemini -->
<g id="edge23" class="edge">
<title>filter&#45;&gt;fetchgemini</title>
<path fill="none" stroke="black" d="M1322,-258.41C1322,-246.76 1322,-231.05 1322,-217.52"/>
<polygon fill="black" stroke="black" points="1325.5,-217.86 1322,-207.86 1318.5,-217.86 1325.5,-217.86"/>
</g>
<!-- filter&#45;&gt;fetchhttp -->
<g id="edge22" class="edge">
<title>filter&#45;&gt;fetchhttp</title>
<path fill="none" stroke="black" d="M1364.1,-259.74C1406.03,-244.03 1470,-220.08 1511.66,-204.48"/>
<polygon fill="black" stroke="black" points="1512.71,-207.83 1520.84,-201.04 1510.25,-201.27 1512.71,-207.83"/>
</g>
<!-- returngather -->
<g id="node24" class="node">
<title>returngather</title>
<ellipse fill="lightblue" stroke="black" cx="1322" cy="-42" rx="87.18" ry="18"/>
<text xml:space="preserve" text-anchor="middle" x="1322" y="-36.95" font-family="Times,serif" font-size="14.00">Return GatherResult</text>
</g>
<!-- extractgemtext&#45;&gt;returngather -->
<g id="edge26" class="edge">
<title>extractgemtext&#45;&gt;returngather</title>
<path fill="none" stroke="black" d="M1316.12,-96.81C1315.32,-89.14 1315.07,-79.89 1315.38,-71.24"/>
<polygon fill="black" stroke="black" points="1318.85,-71.75 1316.04,-61.54 1311.87,-71.28 1318.85,-71.75"/>
</g>
<!-- extractgemtext&#45;&gt;returngather -->
<g id="edge27" class="edge">
<title>extractgemtext&#45;&gt;returngather</title>
<path fill="none" stroke="black" d="M1327.88,-96.81C1328.68,-89.14 1328.93,-79.89 1328.62,-71.24"/>
<polygon fill="black" stroke="black" points="1332.13,-71.28 1327.96,-61.54 1325.15,-71.75 1332.13,-71.28"/>
</g>
<!-- returngather&#45;&gt;gather -->
<g id="edge34" class="edge">
<title>returngather&#45;&gt;gather</title>
<path fill="none" stroke="black" d="M1408.81,-44.49C1521.75,-47.93 1711.45,-59.32 1769,-97 1776.33,-101.8 1779,-105.23 1779,-114 1779,-388.5 1779,-388.5 1779,-388.5 1779,-478.81 1117,-483.93 876.23,-482.81"/>
<polygon fill="black" stroke="black" points="876.27,-479.31 866.25,-482.76 876.24,-486.31 876.27,-479.31"/>
</g>
<!-- embeddequeue -->
<g id="node26" class="node">
<title>embeddequeue</title>
<ellipse fill="lightblue" stroke="black" cx="1031" cy="-188" rx="47.77" ry="18"/>
<text xml:space="preserve" text-anchor="middle" x="1031" y="-182.95" font-family="Times,serif" font-size="14.00">dequeue()</text>
</g>
<!-- embedwait&#45;&gt;embeddequeue -->
<g id="edge28" class="edge">
<title>embedwait&#45;&gt;embeddequeue</title>
<path fill="none" stroke="black" d="M968.78,-265.02C941.54,-256.88 916.02,-243.63 930,-224 940.28,-209.55 956.97,-201.01 973.83,-195.99"/>
<polygon fill="black" stroke="black" points="974.59,-199.4 983.41,-193.54 972.86,-192.62 974.59,-199.4"/>
<text xml:space="preserve" text-anchor="middle" x="990" y="-227.2" font-family="Times,serif" font-size="14.00">enqueue() text chunks</text>
</g>
<!-- embeddequeue&#45;&gt;embedwait -->
<g id="edge29" class="edge">
<title>embeddequeue&#45;&gt;embedwait</title>
<path fill="none" stroke="black" d="M1043.47,-205.73C1049.42,-215.82 1054.39,-228.92 1050,-240.5 1048.5,-244.45 1046.33,-248.24 1043.82,-251.78"/>
<polygon fill="black" stroke="black" points="1041.28,-249.36 1037.59,-259.29 1046.67,-253.83 1041.28,-249.36"/>
<text xml:space="preserve" text-anchor="middle" x="1079.05" y="-227.2" font-family="Times,serif" font-size="14.00">isEmpty()</text>
</g>
<!-- embedsend -->
<g id="node27" class="node">
<title>embedsend</title>
<ellipse fill="lightblue" stroke="black" cx="970" cy="-115" rx="65.17" ry="18"/>
<text xml:space="preserve" text-anchor="middle" x="970" y="-109.95" font-family="Times,serif" font-size="14.00">Send to model</text>
</g>
<!-- embeddequeue&#45;&gt;embedsend -->
<g id="edge30" class="edge">
<title>embeddequeue&#45;&gt;embedsend</title>
<path fill="none" stroke="black" d="M1016.85,-170.53C1009.41,-161.88 1000.14,-151.08 991.8,-141.38"/>
<polygon fill="black" stroke="black" points="994.65,-139.32 985.48,-134.02 989.34,-143.88 994.65,-139.32"/>
</g>
<!-- embedstore -->
<g id="node28" class="node">
<title>embedstore</title>
<ellipse fill="lightblue" stroke="black" cx="1012" cy="-42" rx="55.45" ry="18"/>
<text xml:space="preserve" text-anchor="middle" x="1012" y="-36.95" font-family="Times,serif" font-size="14.00">Store in DB</text>
</g>
<!-- embedsend&#45;&gt;embedstore -->
<g id="edge31" class="edge">
<title>embedsend&#45;&gt;embedstore</title>
<path fill="none" stroke="black" d="M980.17,-96.81C984.96,-88.7 990.8,-78.84 996.16,-69.78"/>
<polygon fill="black" stroke="black" points="999.08,-71.72 1001.16,-61.33 993.05,-68.16 999.08,-71.72"/>
</g>
<!-- embedstore&#45;&gt;embeddequeue -->
<g id="edge32" class="edge">
<title>embedstore&#45;&gt;embeddequeue</title>
<path fill="none" stroke="black" d="M1025.24,-59.91C1032.31,-70.05 1040.31,-83.55 1044,-97 1049.58,-117.36 1045.78,-141 1040.88,-158.95"/>
<polygon fill="black" stroke="black" points="1037.58,-157.79 1038.03,-168.37 1044.28,-159.82 1037.58,-157.79"/>
</g>
</g>
</svg>
